<mxfile host="Electron" agent="Mozilla/5.0 (X11; Linux x86_64) AppleWebKit/537.36 (KHTML, like Gecko) draw.io/24.7.5 Chrome/126.0.6478.183 Electron/31.3.0 Safari/537.36" version="24.7.5">
  <diagram name="PÃ¡gina-1" id="DAtKWNq4PaVtGuUrQWzH">
    <mxGraphModel dx="872" dy="534" grid="1" gridSize="10" guides="1" tooltips="1" connect="1" arrows="1" fold="1" page="1" pageScale="1" pageWidth="827" pageHeight="1169" math="0" shadow="0">
      <root>
        <mxCell id="0" />
        <mxCell id="1" parent="0" />
        <mxCell id="LKN58jGrYVcJwGYVHZ9q-1" value="PEDIDO" style="rounded=0;whiteSpace=wrap;html=1;fillColor=#76608a;fontColor=#ffffff;strokeColor=#432D57;" parent="1" vertex="1">
          <mxGeometry x="340" y="190" width="110" height="40" as="geometry" />
        </mxCell>
        <mxCell id="LKN58jGrYVcJwGYVHZ9q-2" value="ID_PEDIDO" style="ellipse;whiteSpace=wrap;html=1;fillColor=#76608a;fontColor=#ffffff;strokeColor=#432D57;" parent="1" vertex="1">
          <mxGeometry x="230" y="120" width="100" height="45" as="geometry" />
        </mxCell>
        <mxCell id="LKN58jGrYVcJwGYVHZ9q-3" value="&lt;font style=&quot;font-size: 24px;&quot;&gt;*&lt;/font&gt;" style="text;html=1;align=center;verticalAlign=middle;whiteSpace=wrap;rounded=0;" parent="1" vertex="1">
          <mxGeometry x="210" y="100" width="60" height="30" as="geometry" />
        </mxCell>
        <mxCell id="LKN58jGrYVcJwGYVHZ9q-4" value="" style="endArrow=none;html=1;rounded=0;entryX=1;entryY=1;entryDx=0;entryDy=0;exitX=0.25;exitY=0;exitDx=0;exitDy=0;" parent="1" source="LKN58jGrYVcJwGYVHZ9q-1" target="LKN58jGrYVcJwGYVHZ9q-2" edge="1">
          <mxGeometry width="50" height="50" relative="1" as="geometry">
            <mxPoint x="200" y="340" as="sourcePoint" />
            <mxPoint x="250" y="290" as="targetPoint" />
          </mxGeometry>
        </mxCell>
        <mxCell id="LKN58jGrYVcJwGYVHZ9q-5" value="TIPO_PEDIDO" style="ellipse;whiteSpace=wrap;html=1;fillColor=#76608a;fontColor=#ffffff;strokeColor=#432D57;" parent="1" vertex="1">
          <mxGeometry x="345" y="110" width="100" height="45" as="geometry" />
        </mxCell>
        <mxCell id="LKN58jGrYVcJwGYVHZ9q-6" value="" style="endArrow=none;html=1;rounded=0;entryX=0.5;entryY=1;entryDx=0;entryDy=0;exitX=0.75;exitY=0;exitDx=0;exitDy=0;" parent="1" source="LKN58jGrYVcJwGYVHZ9q-1" target="LKN58jGrYVcJwGYVHZ9q-5" edge="1">
          <mxGeometry width="50" height="50" relative="1" as="geometry">
            <mxPoint x="390" y="300" as="sourcePoint" />
            <mxPoint x="440" y="250" as="targetPoint" />
          </mxGeometry>
        </mxCell>
        <mxCell id="LKN58jGrYVcJwGYVHZ9q-11" style="edgeStyle=orthogonalEdgeStyle;rounded=0;orthogonalLoop=1;jettySize=auto;html=1;exitX=0.5;exitY=0;exitDx=0;exitDy=0;entryX=0.5;entryY=1;entryDx=0;entryDy=0;" parent="1" source="LKN58jGrYVcJwGYVHZ9q-7" target="LKN58jGrYVcJwGYVHZ9q-1" edge="1">
          <mxGeometry relative="1" as="geometry" />
        </mxCell>
        <mxCell id="LKN58jGrYVcJwGYVHZ9q-7" value="PEDIDO_&lt;div&gt;PASTAS&lt;/div&gt;" style="rhombus;whiteSpace=wrap;html=1;" parent="1" vertex="1">
          <mxGeometry x="260" y="305" width="90" height="90" as="geometry" />
        </mxCell>
        <mxCell id="LKN58jGrYVcJwGYVHZ9q-9" value="PASTAS" style="rounded=0;whiteSpace=wrap;html=1;fillColor=#76608a;fontColor=#ffffff;strokeColor=#432D57;" parent="1" vertex="1">
          <mxGeometry x="250" y="460" width="110" height="40" as="geometry" />
        </mxCell>
        <mxCell id="LKN58jGrYVcJwGYVHZ9q-10" value="MENU_DIARIO" style="rounded=0;whiteSpace=wrap;html=1;fillColor=#76608a;fontColor=#ffffff;strokeColor=#432D57;" parent="1" vertex="1">
          <mxGeometry x="425" y="460" width="110" height="40" as="geometry" />
        </mxCell>
        <mxCell id="LKN58jGrYVcJwGYVHZ9q-12" value="" style="endArrow=none;html=1;rounded=0;entryX=0.5;entryY=1;entryDx=0;entryDy=0;exitX=0.5;exitY=0;exitDx=0;exitDy=0;" parent="1" source="LKN58jGrYVcJwGYVHZ9q-9" target="LKN58jGrYVcJwGYVHZ9q-7" edge="1">
          <mxGeometry width="50" height="50" relative="1" as="geometry">
            <mxPoint x="300" y="420" as="sourcePoint" />
            <mxPoint x="350" y="370" as="targetPoint" />
          </mxGeometry>
        </mxCell>
        <mxCell id="60rEnAwDFjRoZU05Cf9g-1" value="PEDIDO_&lt;div&gt;MENU_&lt;/div&gt;&lt;div&gt;DIARIO&lt;/div&gt;" style="rhombus;whiteSpace=wrap;html=1;" vertex="1" parent="1">
          <mxGeometry x="430" y="300" width="100" height="100" as="geometry" />
        </mxCell>
        <mxCell id="60rEnAwDFjRoZU05Cf9g-2" value="" style="endArrow=none;html=1;rounded=0;entryX=0.5;entryY=1;entryDx=0;entryDy=0;exitX=0.5;exitY=0;exitDx=0;exitDy=0;" edge="1" parent="1" source="LKN58jGrYVcJwGYVHZ9q-10" target="60rEnAwDFjRoZU05Cf9g-1">
          <mxGeometry width="50" height="50" relative="1" as="geometry">
            <mxPoint x="100" y="520" as="sourcePoint" />
            <mxPoint x="150" y="470" as="targetPoint" />
          </mxGeometry>
        </mxCell>
        <mxCell id="60rEnAwDFjRoZU05Cf9g-3" style="edgeStyle=orthogonalEdgeStyle;rounded=0;orthogonalLoop=1;jettySize=auto;html=1;exitX=0.5;exitY=0;exitDx=0;exitDy=0;entryX=0.669;entryY=0.995;entryDx=0;entryDy=0;entryPerimeter=0;" edge="1" parent="1" source="60rEnAwDFjRoZU05Cf9g-1" target="LKN58jGrYVcJwGYVHZ9q-1">
          <mxGeometry relative="1" as="geometry" />
        </mxCell>
      </root>
    </mxGraphModel>
  </diagram>
</mxfile>
